<mxfile host="app.diagrams.net" modified="2024-11-15T14:25:59.754Z" agent="Mozilla/5.0 (Windows NT 10.0; Win64; x64) AppleWebKit/537.36 (KHTML, like Gecko) Chrome/130.0.0.0 Safari/537.36 Avast/130.0.0.0" etag="3lTEQpGXiQd2A4W9Pv90" version="24.4.6" type="device">
  <diagram name="Page-1" id="dnMi0ilsJs6fgyi7Ds1i">
    <mxGraphModel dx="880" dy="426" grid="1" gridSize="10" guides="1" tooltips="1" connect="1" arrows="1" fold="1" page="1" pageScale="1" pageWidth="850" pageHeight="1100" math="0" shadow="0">
      <root>
        <mxCell id="0" />
        <mxCell id="1" parent="0" />
        <mxCell id="lQZzDZ84siuSdMDqbKgX-1" value="lib" style="rounded=1;whiteSpace=wrap;html=1;" vertex="1" parent="1">
          <mxGeometry x="10" y="50" width="120" height="30" as="geometry" />
        </mxCell>
        <mxCell id="lQZzDZ84siuSdMDqbKgX-2" value="" style="endArrow=none;html=1;rounded=0;entryX=0.592;entryY=1.167;entryDx=0;entryDy=0;entryPerimeter=0;" edge="1" parent="1" target="lQZzDZ84siuSdMDqbKgX-1">
          <mxGeometry width="50" height="50" relative="1" as="geometry">
            <mxPoint x="80" y="531" as="sourcePoint" />
            <mxPoint x="330" y="180" as="targetPoint" />
          </mxGeometry>
        </mxCell>
        <mxCell id="lQZzDZ84siuSdMDqbKgX-3" value="" style="endArrow=classic;html=1;rounded=0;entryX=0;entryY=0.75;entryDx=0;entryDy=0;" edge="1" parent="1" target="lQZzDZ84siuSdMDqbKgX-4">
          <mxGeometry width="50" height="50" relative="1" as="geometry">
            <mxPoint x="80" y="120" as="sourcePoint" />
            <mxPoint x="320" y="240" as="targetPoint" />
          </mxGeometry>
        </mxCell>
        <mxCell id="lQZzDZ84siuSdMDqbKgX-4" value="Core" style="rounded=1;whiteSpace=wrap;html=1;" vertex="1" parent="1">
          <mxGeometry x="200" y="100" width="120" height="30" as="geometry" />
        </mxCell>
        <mxCell id="lQZzDZ84siuSdMDqbKgX-5" value="DI (get_it)" style="rounded=1;whiteSpace=wrap;html=1;" vertex="1" parent="1">
          <mxGeometry x="320" y="150" width="120" height="30" as="geometry" />
        </mxCell>
        <mxCell id="lQZzDZ84siuSdMDqbKgX-6" value="Network (Dio + Retrofit)" style="rounded=1;whiteSpace=wrap;html=1;" vertex="1" parent="1">
          <mxGeometry x="320" y="190" width="120" height="30" as="geometry" />
        </mxCell>
        <mxCell id="lQZzDZ84siuSdMDqbKgX-7" value="Routing&lt;span style=&quot;color: rgba(0, 0, 0, 0); font-family: monospace; font-size: 0px; text-align: start; text-wrap-mode: nowrap;&quot;&gt;%3CmxGraphModel%3E%3Croot%3E%3CmxCell%20id%3D%220%22%2F%3E%3CmxCell%20id%3D%221%22%20parent%3D%220%22%2F%3E%3CmxCell%20id%3D%222%22%20value%3D%22Network%20(Dio%20%2B%20Retrofit)%22%20style%3D%22rounded%3D1%3BwhiteSpace%3Dwrap%3Bhtml%3D1%3B%22%20vertex%3D%221%22%20parent%3D%221%22%3E%3CmxGeometry%20x%3D%22400%22%20y%3D%22200%22%20width%3D%22120%22%20height%3D%2230%22%20as%3D%22geometry%22%2F%3E%3C%2FmxCell%3E%3C%2Froot%3E%3C%2FmxGraphModel%3E&lt;/span&gt;" style="rounded=1;whiteSpace=wrap;html=1;" vertex="1" parent="1">
          <mxGeometry x="320" y="230" width="120" height="30" as="geometry" />
        </mxCell>
        <mxCell id="lQZzDZ84siuSdMDqbKgX-8" value="Helper" style="rounded=1;whiteSpace=wrap;html=1;" vertex="1" parent="1">
          <mxGeometry x="320" y="270" width="120" height="30" as="geometry" />
        </mxCell>
        <mxCell id="lQZzDZ84siuSdMDqbKgX-9" value="Theming" style="rounded=1;whiteSpace=wrap;html=1;" vertex="1" parent="1">
          <mxGeometry x="320" y="310" width="120" height="30" as="geometry" />
        </mxCell>
        <mxCell id="lQZzDZ84siuSdMDqbKgX-10" value="Widgets" style="rounded=1;whiteSpace=wrap;html=1;" vertex="1" parent="1">
          <mxGeometry x="320" y="350" width="120" height="30" as="geometry" />
        </mxCell>
        <mxCell id="lQZzDZ84siuSdMDqbKgX-11" value="" style="endArrow=classic;html=1;rounded=0;" edge="1" parent="1">
          <mxGeometry width="50" height="50" relative="1" as="geometry">
            <mxPoint x="280" y="160" as="sourcePoint" />
            <mxPoint x="320" y="160" as="targetPoint" />
          </mxGeometry>
        </mxCell>
        <mxCell id="lQZzDZ84siuSdMDqbKgX-14" value="" style="endArrow=none;html=1;rounded=0;entryX=0.683;entryY=1.1;entryDx=0;entryDy=0;entryPerimeter=0;" edge="1" parent="1" target="lQZzDZ84siuSdMDqbKgX-4">
          <mxGeometry width="50" height="50" relative="1" as="geometry">
            <mxPoint x="282" y="360" as="sourcePoint" />
            <mxPoint x="280" y="140" as="targetPoint" />
          </mxGeometry>
        </mxCell>
        <mxCell id="lQZzDZ84siuSdMDqbKgX-15" value="" style="endArrow=classic;html=1;rounded=0;" edge="1" parent="1">
          <mxGeometry width="50" height="50" relative="1" as="geometry">
            <mxPoint x="280" y="200" as="sourcePoint" />
            <mxPoint x="320" y="200" as="targetPoint" />
          </mxGeometry>
        </mxCell>
        <mxCell id="lQZzDZ84siuSdMDqbKgX-16" value="" style="endArrow=classic;html=1;rounded=0;" edge="1" parent="1">
          <mxGeometry width="50" height="50" relative="1" as="geometry">
            <mxPoint x="280" y="240" as="sourcePoint" />
            <mxPoint x="320" y="240" as="targetPoint" />
          </mxGeometry>
        </mxCell>
        <mxCell id="lQZzDZ84siuSdMDqbKgX-17" value="" style="endArrow=classic;html=1;rounded=0;entryX=0;entryY=0.25;entryDx=0;entryDy=0;" edge="1" parent="1" target="lQZzDZ84siuSdMDqbKgX-8">
          <mxGeometry width="50" height="50" relative="1" as="geometry">
            <mxPoint x="280" y="280" as="sourcePoint" />
            <mxPoint x="820" y="200" as="targetPoint" />
          </mxGeometry>
        </mxCell>
        <mxCell id="lQZzDZ84siuSdMDqbKgX-18" value="" style="endArrow=classic;html=1;rounded=0;" edge="1" parent="1" target="lQZzDZ84siuSdMDqbKgX-9">
          <mxGeometry width="50" height="50" relative="1" as="geometry">
            <mxPoint x="280" y="320" as="sourcePoint" />
            <mxPoint x="830" y="210" as="targetPoint" />
          </mxGeometry>
        </mxCell>
        <mxCell id="lQZzDZ84siuSdMDqbKgX-19" value="" style="endArrow=classic;html=1;rounded=0;" edge="1" parent="1">
          <mxGeometry width="50" height="50" relative="1" as="geometry">
            <mxPoint x="280" y="360" as="sourcePoint" />
            <mxPoint x="320" y="360" as="targetPoint" />
          </mxGeometry>
        </mxCell>
        <mxCell id="lQZzDZ84siuSdMDqbKgX-20" value="" style="endArrow=classic;html=1;rounded=0;" edge="1" parent="1" target="lQZzDZ84siuSdMDqbKgX-29">
          <mxGeometry width="50" height="50" relative="1" as="geometry">
            <mxPoint x="400" y="520" as="sourcePoint" />
            <mxPoint x="850" y="230" as="targetPoint" />
          </mxGeometry>
        </mxCell>
        <mxCell id="lQZzDZ84siuSdMDqbKgX-21" value="" style="endArrow=classic;html=1;rounded=0;" edge="1" parent="1">
          <mxGeometry width="50" height="50" relative="1" as="geometry">
            <mxPoint x="520" y="694" as="sourcePoint" />
            <mxPoint x="560" y="696" as="targetPoint" />
          </mxGeometry>
        </mxCell>
        <mxCell id="lQZzDZ84siuSdMDqbKgX-23" value="" style="endArrow=classic;html=1;rounded=0;" edge="1" parent="1" target="lQZzDZ84siuSdMDqbKgX-35">
          <mxGeometry width="50" height="50" relative="1" as="geometry">
            <mxPoint x="520" y="570" as="sourcePoint" />
            <mxPoint x="880" y="260" as="targetPoint" />
          </mxGeometry>
        </mxCell>
        <mxCell id="lQZzDZ84siuSdMDqbKgX-25" value="Features" style="rounded=1;whiteSpace=wrap;html=1;" vertex="1" parent="1">
          <mxGeometry x="200" y="400" width="120" height="40" as="geometry" />
        </mxCell>
        <mxCell id="lQZzDZ84siuSdMDqbKgX-26" value="" style="endArrow=none;html=1;rounded=0;entryX=0.658;entryY=1.05;entryDx=0;entryDy=0;entryPerimeter=0;" edge="1" parent="1" target="lQZzDZ84siuSdMDqbKgX-25">
          <mxGeometry width="50" height="50" relative="1" as="geometry">
            <mxPoint x="280" y="640" as="sourcePoint" />
            <mxPoint x="470" y="420" as="targetPoint" />
          </mxGeometry>
        </mxCell>
        <mxCell id="lQZzDZ84siuSdMDqbKgX-28" value="home" style="rounded=1;whiteSpace=wrap;html=1;" vertex="1" parent="1">
          <mxGeometry x="320" y="460" width="120" height="30" as="geometry" />
        </mxCell>
        <mxCell id="lQZzDZ84siuSdMDqbKgX-29" value="data" style="rounded=1;whiteSpace=wrap;html=1;" vertex="1" parent="1">
          <mxGeometry x="440" y="500" width="120" height="30" as="geometry" />
        </mxCell>
        <mxCell id="lQZzDZ84siuSdMDqbKgX-30" value="logic" style="rounded=1;whiteSpace=wrap;html=1;" vertex="1" parent="1">
          <mxGeometry x="440" y="640" width="120" height="30" as="geometry" />
        </mxCell>
        <mxCell id="lQZzDZ84siuSdMDqbKgX-31" value="ui" style="rounded=1;whiteSpace=wrap;html=1;" vertex="1" parent="1">
          <mxGeometry x="440" y="750" width="120" height="30" as="geometry" />
        </mxCell>
        <mxCell id="lQZzDZ84siuSdMDqbKgX-33" value="" style="endArrow=none;html=1;rounded=0;entryX=0.658;entryY=1.05;entryDx=0;entryDy=0;entryPerimeter=0;" edge="1" parent="1">
          <mxGeometry width="50" height="50" relative="1" as="geometry">
            <mxPoint x="400" y="770" as="sourcePoint" />
            <mxPoint x="400" y="490" as="targetPoint" />
          </mxGeometry>
        </mxCell>
        <mxCell id="lQZzDZ84siuSdMDqbKgX-34" value="repository" style="rounded=1;whiteSpace=wrap;html=1;" vertex="1" parent="1">
          <mxGeometry x="560" y="590" width="120" height="30" as="geometry" />
        </mxCell>
        <mxCell id="lQZzDZ84siuSdMDqbKgX-35" value="models" style="rounded=1;whiteSpace=wrap;html=1;" vertex="1" parent="1">
          <mxGeometry x="560" y="550" width="120" height="30" as="geometry" />
        </mxCell>
        <mxCell id="lQZzDZ84siuSdMDqbKgX-37" value="" style="endArrow=none;html=1;rounded=0;entryX=0.658;entryY=1.05;entryDx=0;entryDy=0;entryPerimeter=0;" edge="1" parent="1">
          <mxGeometry width="50" height="50" relative="1" as="geometry">
            <mxPoint x="520" y="610" as="sourcePoint" />
            <mxPoint x="520" y="530" as="targetPoint" />
          </mxGeometry>
        </mxCell>
        <mxCell id="lQZzDZ84siuSdMDqbKgX-40" value="" style="endArrow=classic;html=1;rounded=0;" edge="1" parent="1" target="lQZzDZ84siuSdMDqbKgX-34">
          <mxGeometry width="50" height="50" relative="1" as="geometry">
            <mxPoint x="520" y="610" as="sourcePoint" />
            <mxPoint x="890" y="270" as="targetPoint" />
          </mxGeometry>
        </mxCell>
        <mxCell id="lQZzDZ84siuSdMDqbKgX-41" value="" style="endArrow=classic;html=1;rounded=0;" edge="1" parent="1" target="lQZzDZ84siuSdMDqbKgX-30">
          <mxGeometry width="50" height="50" relative="1" as="geometry">
            <mxPoint x="400" y="660" as="sourcePoint" />
            <mxPoint x="900" y="280" as="targetPoint" />
          </mxGeometry>
        </mxCell>
        <mxCell id="lQZzDZ84siuSdMDqbKgX-42" value="" style="endArrow=classic;html=1;rounded=0;" edge="1" parent="1" target="lQZzDZ84siuSdMDqbKgX-28">
          <mxGeometry width="50" height="50" relative="1" as="geometry">
            <mxPoint x="280" y="470" as="sourcePoint" />
            <mxPoint x="910" y="290" as="targetPoint" />
          </mxGeometry>
        </mxCell>
        <mxCell id="lQZzDZ84siuSdMDqbKgX-44" value="cubit / state" style="rounded=1;whiteSpace=wrap;html=1;" vertex="1" parent="1">
          <mxGeometry x="560" y="680" width="120" height="30" as="geometry" />
        </mxCell>
        <mxCell id="lQZzDZ84siuSdMDqbKgX-45" value="" style="endArrow=none;html=1;rounded=0;entryX=0.658;entryY=1.05;entryDx=0;entryDy=0;entryPerimeter=0;" edge="1" parent="1">
          <mxGeometry width="50" height="50" relative="1" as="geometry">
            <mxPoint x="520" y="700" as="sourcePoint" />
            <mxPoint x="520" y="670" as="targetPoint" />
            <Array as="points">
              <mxPoint x="520" y="700" />
              <mxPoint x="520" y="690" />
            </Array>
          </mxGeometry>
        </mxCell>
        <mxCell id="lQZzDZ84siuSdMDqbKgX-47" value="widgets" style="rounded=1;whiteSpace=wrap;html=1;" vertex="1" parent="1">
          <mxGeometry x="560" y="840" width="120" height="30" as="geometry" />
        </mxCell>
        <mxCell id="lQZzDZ84siuSdMDqbKgX-48" value="screens" style="rounded=1;whiteSpace=wrap;html=1;" vertex="1" parent="1">
          <mxGeometry x="560" y="800" width="120" height="30" as="geometry" />
        </mxCell>
        <mxCell id="lQZzDZ84siuSdMDqbKgX-49" value="" style="endArrow=classic;html=1;rounded=0;" edge="1" parent="1" target="lQZzDZ84siuSdMDqbKgX-31">
          <mxGeometry width="50" height="50" relative="1" as="geometry">
            <mxPoint x="400" y="764" as="sourcePoint" />
            <mxPoint x="490" y="836" as="targetPoint" />
          </mxGeometry>
        </mxCell>
        <mxCell id="lQZzDZ84siuSdMDqbKgX-50" value="" style="endArrow=classic;html=1;rounded=0;" edge="1" parent="1" target="lQZzDZ84siuSdMDqbKgX-47">
          <mxGeometry width="50" height="50" relative="1" as="geometry">
            <mxPoint x="520" y="860" as="sourcePoint" />
            <mxPoint x="1060" y="700" as="targetPoint" />
          </mxGeometry>
        </mxCell>
        <mxCell id="lQZzDZ84siuSdMDqbKgX-51" value="" style="endArrow=classic;html=1;rounded=0;" edge="1" parent="1" target="lQZzDZ84siuSdMDqbKgX-48">
          <mxGeometry width="50" height="50" relative="1" as="geometry">
            <mxPoint x="520" y="820" as="sourcePoint" />
            <mxPoint x="1020" y="620" as="targetPoint" />
          </mxGeometry>
        </mxCell>
        <mxCell id="lQZzDZ84siuSdMDqbKgX-52" value="" style="endArrow=none;html=1;rounded=0;entryX=0.658;entryY=1.05;entryDx=0;entryDy=0;entryPerimeter=0;" edge="1" parent="1">
          <mxGeometry width="50" height="50" relative="1" as="geometry">
            <mxPoint x="520" y="860" as="sourcePoint" />
            <mxPoint x="520" y="780" as="targetPoint" />
          </mxGeometry>
        </mxCell>
        <mxCell id="lQZzDZ84siuSdMDqbKgX-53" value="" style="endArrow=none;html=1;rounded=0;exitX=1;exitY=0.5;exitDx=0;exitDy=0;" edge="1" parent="1" source="lQZzDZ84siuSdMDqbKgX-6">
          <mxGeometry width="50" height="50" relative="1" as="geometry">
            <mxPoint x="500" y="380" as="sourcePoint" />
            <mxPoint x="760" y="200" as="targetPoint" />
          </mxGeometry>
        </mxCell>
        <mxCell id="lQZzDZ84siuSdMDqbKgX-54" value="" style="endArrow=none;html=1;rounded=0;" edge="1" parent="1">
          <mxGeometry width="50" height="50" relative="1" as="geometry">
            <mxPoint x="760" y="600" as="sourcePoint" />
            <mxPoint x="760" y="200" as="targetPoint" />
          </mxGeometry>
        </mxCell>
        <mxCell id="lQZzDZ84siuSdMDqbKgX-56" value="&lt;font size=&quot;3&quot;&gt;Interact&lt;/font&gt;" style="edgeLabel;html=1;align=center;verticalAlign=middle;resizable=0;points=[];" vertex="1" connectable="0" parent="lQZzDZ84siuSdMDqbKgX-54">
          <mxGeometry x="-0.09" y="-3" relative="1" as="geometry">
            <mxPoint as="offset" />
          </mxGeometry>
        </mxCell>
        <mxCell id="lQZzDZ84siuSdMDqbKgX-55" value="" style="endArrow=classic;html=1;rounded=0;" edge="1" parent="1">
          <mxGeometry width="50" height="50" relative="1" as="geometry">
            <mxPoint x="760" y="600" as="sourcePoint" />
            <mxPoint x="680" y="600" as="targetPoint" />
          </mxGeometry>
        </mxCell>
      </root>
    </mxGraphModel>
  </diagram>
</mxfile>
